<?xml version="1.0" encoding="UTF-8" standalone="no"?>
<!-- Created with Inkscape (http://www.inkscape.org/) -->

<svg
   xmlns:dc="http://purl.org/dc/elements/1.1/"
   xmlns:cc="http://creativecommons.org/ns#"
   xmlns:rdf="http://www.w3.org/1999/02/22-rdf-syntax-ns#"
   xmlns:svg="http://www.w3.org/2000/svg"
   xmlns="http://www.w3.org/2000/svg"
   xmlns:sodipodi="http://sodipodi.sourceforge.net/DTD/sodipodi-0.dtd"
   xmlns:inkscape="http://www.inkscape.org/namespaces/inkscape"
   width="84.545067mm"
   height="46.449741mm"
   viewBox="0 0 84.545067 46.449741"
   version="1.1"
   id="svg8"
   inkscape:version="0.92.1 r"
   sodipodi:docname="logo.svg">
  <defs
     id="defs2" />
  <sodipodi:namedview
     id="base"
     pagecolor="#ffffff"
     bordercolor="#666666"
     borderopacity="1.0"
     inkscape:pageopacity="0.0"
     inkscape:pageshadow="2"
     inkscape:zoom="0.98994949"
     inkscape:cx="336.90278"
     inkscape:cy="116.07962"
     inkscape:document-units="mm"
     inkscape:current-layer="layer1"
     showgrid="false"
     fit-margin-top="1"
     fit-margin-left="1"
     fit-margin-right="1"
     fit-margin-bottom="1"
     inkscape:window-width="1335"
     inkscape:window-height="744"
     inkscape:window-x="31"
     inkscape:window-y="0"
     inkscape:window-maximized="1" />
  <metadata
     id="metadata5">
    <rdf:RDF>
      <cc:Work
         rdf:about="">
        <dc:format>image/svg+xml</dc:format>
        <dc:type
           rdf:resource="http://purl.org/dc/dcmitype/StillImage" />
        <dc:title></dc:title>
      </cc:Work>
    </rdf:RDF>
  </metadata>
  <g
     inkscape:label="Layer 1"
     inkscape:groupmode="layer"
     id="layer1"
     transform="translate(-1.103996,-247.32715)">
    <path
       inkscape:connector-curvature="0"
       id="path4552"
       d="m 13.130019,292.49453 c -4.343128,-0.56802 -6.392637,-2.09319 -6.394825,-4.75881 -0.0011,-1.36764 0.640771,-2.5331 2.864123,-5.20029 2.774384,-3.32822 3.266262,-4.62265 2.228117,-5.86351 -0.387491,-0.46316 -0.808299,-0.56505 -2.579687,-0.62463 l -2.116667,-0.0712 -0.132291,-1.19062 -0.132292,-1.19063 -1.190625,-0.13229 -1.190625,-0.13229 -0.07332,-3.75545 -0.07332,-3.75545 -1.117306,-0.081 c -1.113632,-0.0807 -1.117305,-0.0845 -1.117305,-1.13934 v -1.05833 H 3.16233 c 1.053723,0 1.058684,0.005 1.138983,1.10997 0.07989,1.09955 0.09108,1.11074 1.190625,1.19063 1.104559,0.0803 1.11062,0.0865 1.242266,1.27127 l 0.132292,1.19063 1.190625,0.13229 1.190625,0.13229 0.132292,1.19063 0.132291,1.19062 1.190625,0.13229 1.190625,0.13229 0.141032,1.5875 c 0.103761,1.16796 0.365978,1.94486 0.992188,2.93968 1.403716,2.23 1.056443,3.62926 -1.765698,7.11449 -2.947964,3.64062 -3.252887,4.31485 -2.5586,5.65745 0.709185,1.37141 2.278971,2.00859 4.957614,2.01229 1.925449,0.003 2.41618,-0.0868 3.042708,-0.5546 l 0.747006,-0.55779 0.04986,-4.29605 c 0.05324,-4.587 0.267041,-5.6733 1.546247,-7.8561 0.778195,-1.32789 2.955223,-2.73315 4.240304,-2.73709 0.916389,-0.003 1.868628,-0.58074 1.619921,-0.98316 -0.09083,-0.14696 -1.091281,-0.41602 -2.223234,-0.59791 -5.168399,-0.83051 -8.82108,-3.2403 -10.777695,-7.1104 -0.728882,-1.44169 -0.491804,-1.60367 2.28927,-1.56407 2.35393,0.0335 3.852975,-0.32054 3.535056,-0.83494 -0.07258,-0.11744 -1.142665,-0.27659 -2.377959,-0.35365 -5.334807,-0.33283 -8.891066,-3.68579 -10.474078,-9.87531 -0.578097,-2.26034 -0.701886,-4.87679 -0.230729,-4.87679 0.16161,0 1.532395,1.18252 3.046189,2.62782 3.273569,3.12547 5.613827,4.73619 9.059931,6.23564 4.978801,2.16635 5.365442,2.42574 7.796897,5.23068 1.523633,1.75768 2.347713,2.17953 2.661297,1.36234 0.301909,-0.78675 0.173935,-4.00402 -0.170129,-4.27711 -0.181901,-0.14437 -0.762404,-0.40142 -1.290007,-0.57122 -1.342829,-0.43216 -3.017815,-1.92254 -2.799644,-2.49108 0.130445,-0.33993 0.505655,-0.44416 1.599,-0.44416 1.170273,0 1.848922,-0.21449 3.75352,-1.18633 2.769497,-1.41317 3.730035,-1.63044 5.284293,-1.19527 0.936447,0.26219 1.510733,0.259 2.894631,-0.0161 1.425176,-0.28328 1.840651,-0.28202 2.381121,0.007 0.959969,0.51376 1.514049,1.88554 1.419984,3.51556 l -0.07988,1.38415 -1.281803,0.18222 c -1.3643,0.19396 -2.290072,0.81383 -2.290072,1.53336 0,0.46602 0.80885,1.28479 2.475222,2.5056 1.402281,1.02733 2.445398,2.77754 2.932938,4.92109 0.469932,2.06614 0.352835,2.63597 -0.541676,2.63597 -0.803968,0 -0.830897,0.66965 -0.103852,2.58253 0.290971,0.76554 0.529035,1.92194 0.529035,2.56976 0,1.50893 -0.896112,3.90496 -1.879206,5.02464 l -0.766627,0.87314 v 3.94109 c 0,5.10115 0.04526,5.18163 2.849332,5.06687 l 2.00338,-0.082 0.511738,0.86559 c 0.90373,1.52862 0.553596,1.64796 -4.835284,1.64796 -3.783957,0 -4.759724,-0.0747 -5.016545,-0.38418 -0.512802,-0.61789 -0.05129,-1.45589 1.042924,-1.8937 1.150554,-0.46036 1.419096,-1.08031 0.99812,-2.30423 -0.855231,-2.48644 -2.832957,-4.04424 -4.846315,-3.81731 -2.199804,0.24795 -5.149019,2.79896 -5.138716,4.44489 0.0088,1.39666 0.627605,1.62165 3.371958,1.22589 1.275599,-0.18396 1.447999,-0.14433 2.067608,0.47528 0.465399,0.4654 0.650044,0.90105 0.592741,1.39852 l -0.08323,0.72254 -8.995833,0.0343 c -4.947708,0.0189 -9.749123,-0.0642 -10.669811,-0.18463 z"
       style="fill:#563989;stroke-width:1" />
    <g
       id="g4649"
       transform="translate(-3.7041666)">
      <path
         sodipodi:nodetypes="cccccsccccccscsssccccccccc"
         style="fill:#fddc58;stroke-width:1"
         d="m 63.871014,292.43932 c -2.584789,-0.58748 -4.385251,-1.49862 -5.52381,-2.79537 l -0.941861,-1.07271 0.09226,-6.58484 c 0.08873,-6.33335 0.119303,-6.62275 0.800427,-7.57771 1.348481,-1.8906 1.922441,-2.02506 9.377691,-2.1968 l 6.740891,-0.15529 1.317435,-0.92576 c 2.029413,-1.42609 2.767226,-3.04291 2.971239,-6.51103 l 0.170707,-2.90219 2.183544,-0.0889 c 2.624292,-0.10686 3.968172,0.37482 5.036253,1.80516 1.468496,1.96655 2.560229,7.11787 2.181897,10.29522 -0.264188,2.21872 -1.244864,5.08676 -2.157641,6.31014 -1.37567,1.8438 -1.685147,1.90023 -10.421866,1.90023 -6.838506,0 -7.921383,0.0623 -7.921383,0.45613 0,0.38579 0.725243,0.45613 4.70266,0.45613 5.543666,0 5.534305,-0.006 5.231465,3.23729 -0.215547,2.30823 -0.76743,3.46023 -2.170252,4.53022 -2.349363,1.79194 -7.950151,2.6655 -11.669652,1.8201 z m 10.29162,-3.80994 c 0.739951,-0.73995 0.773714,-1.44168 0.104912,-2.18069 -0.57151,-0.63152 -1.931492,-0.7365 -2.476799,-0.1912 -0.604843,0.60485 -0.433619,1.98518 0.310934,2.50669 0.893202,0.62562 1.329037,0.59711 2.060953,-0.1348 z"
         id="path4626"
         inkscape:connector-curvature="0" />
      <path
         style="fill:#3974a4;stroke-width:1"
         d="m 50.595838,281.7349 c -2.202689,-1.16102 -3.176604,-3.03807 -3.804547,-7.3326 -0.584267,-3.99583 0.402866,-8.74468 2.22294,-10.69401 1.529456,-1.63807 1.935943,-1.71246 10.248106,-1.87545 6.622354,-0.12985 7.754235,-0.21862 7.754235,-0.60817 0,-0.3793 -0.794006,-0.48174 -4.713359,-0.60818 l -4.713358,-0.15204 -0.08793,-2.66573 c -0.110148,-3.33918 0.356193,-4.49317 2.168795,-5.36681 1.900618,-0.91606 5.34893,-1.34158 9.322427,-1.15038 3.75929,0.1809 5.087361,0.50539 6.571114,1.60555 1.758485,1.30388 1.943336,2.1408 1.943336,8.79828 0,5.62239 -0.04172,6.06865 -0.672612,7.19114 -0.369936,0.65822 -1.156761,1.49788 -1.748502,1.86593 -1.019612,0.63417 -1.410296,0.66918 -7.469236,0.66918 -6.259294,0 -6.425012,0.0163 -7.903566,0.77686 -1.072796,0.55186 -1.775236,1.20538 -2.425196,2.25629 -0.816471,1.32014 -0.931346,1.80942 -1.067021,4.54467 l -0.152044,3.06524 -2.280657,0.0805 c -1.621089,0.0572 -2.544485,-0.0585 -3.192921,-0.40031 z m 12.367629,-24.35846 c 0.305854,-0.27679 0.556097,-0.77917 0.556097,-1.11638 0,-1.59384 -2.269149,-2.34374 -3.175677,-1.04948 -0.625622,0.89319 -0.597115,1.32904 0.134801,2.06095 0.73948,0.73948 1.737049,0.7816 2.484779,0.10491 z"
         id="path4624"
         inkscape:connector-curvature="0" />
    </g>
  </g>
</svg>
